# Blender 5.1.1
# www.blender.org
mtllib tunnel_visual.mtl
o Tunnel_Inner
v -5.000000 -0.000000 -0.350000
v 5.000000 0.000000 -0.350000
v -5.000000 -0.000000 0.350000
v 5.000000 0.000000 0.350000
v -5.000000 0.034306 0.348315
v 5.000000 0.034306 0.348315
v -5.000000 0.068281 0.343275
v 5.000000 0.068282 0.343275
v -5.000000 0.101599 0.334929
v 5.000000 0.101600 0.334929
v -5.000000 0.133939 0.323358
v 5.000000 0.133940 0.323358
v -5.000000 0.164988 0.308672
v 5.000000 0.164989 0.308672
v -5.000000 0.194449 0.291014
v 5.000000 0.194450 0.291014
v -5.000000 0.222037 0.270554
v 5.000000 0.222038 0.270554
v -5.000000 0.247487 0.247487
v 5.000000 0.247488 0.247487
v -5.000000 0.270553 0.222038
v 5.000000 0.270554 0.222038
v -5.000000 0.291014 0.194450
v 5.000000 0.291015 0.194450
v -5.000000 0.308672 0.164989
v 5.000000 0.308673 0.164989
v -5.000000 0.323357 0.133939
v 5.000000 0.323358 0.133939
v -5.000000 0.334929 0.101600
v 5.000000 0.334929 0.101600
v -5.000000 0.343274 0.068282
v 5.000000 0.343275 0.068282
v -5.000000 0.348314 0.034306
v 5.000000 0.348315 0.034306
v -5.000000 0.350000 0.000000
v 5.000000 0.350000 0.000000
v -5.000000 0.348314 -0.034306
v 5.000000 0.348315 -0.034306
v -5.000000 0.343274 -0.068282
v 5.000000 0.343275 -0.068282
v -5.000000 0.334929 -0.101600
v 5.000000 0.334929 -0.101600
v -5.000000 0.323357 -0.133939
v 5.000000 0.323358 -0.133939
v -5.000000 0.308672 -0.164989
v 5.000000 0.308673 -0.164989
v -5.000000 0.291014 -0.194450
v 5.000000 0.291015 -0.194450
v -5.000000 0.270553 -0.222038
v 5.000000 0.270554 -0.222038
v -5.000000 0.247487 -0.247487
v 5.000000 0.247488 -0.247487
v -5.000000 0.222037 -0.270554
v 5.000000 0.222038 -0.270554
v -5.000000 0.194449 -0.291014
v 5.000000 0.194450 -0.291014
v -5.000000 0.164988 -0.308672
v 5.000000 0.164989 -0.308672
v -5.000000 0.133939 -0.323358
v 5.000000 0.133940 -0.323358
v -5.000000 0.101599 -0.334929
v 5.000000 0.101600 -0.334929
v -5.000000 0.068281 -0.343275
v 5.000000 0.068282 -0.343275
v -5.000000 0.034306 -0.348315
v 5.000000 0.034306 -0.348315
vn -0.0000 0.0491 -0.9988
vn -0.0000 0.0491 0.9988
vn -0.0000 0.0980 0.9952
vn -0.0000 0.1951 0.9808
vn -0.0000 0.2903 0.9569
vn -0.0000 0.3827 0.9239
vn -0.0000 0.4714 0.8819
vn -0.0000 0.5556 0.8315
vn -0.0000 0.6344 0.7730
vn -0.0000 0.7071 0.7071
vn -0.0000 0.7730 0.6344
vn -0.0000 0.8315 0.5556
vn -0.0000 0.8819 0.4714
vn -0.0000 0.9239 0.3827
vn -0.0000 0.9569 0.2903
vn -0.0000 0.9808 0.1951
vn -0.0000 0.9952 0.0980
vn -0.0000 1.0000 -0.0000
vn -0.0000 0.9952 -0.0980
vn -0.0000 0.9808 -0.1951
vn -0.0000 0.9569 -0.2903
vn -0.0000 0.9239 -0.3827
vn -0.0000 0.8819 -0.4714
vn -0.0000 0.8315 -0.5556
vn -0.0000 0.7730 -0.6344
vn -0.0000 0.7071 -0.7071
vn -0.0000 0.6344 -0.7730
vn -0.0000 0.5556 -0.8315
vn -0.0000 0.4714 -0.8819
vn -0.0000 0.3827 -0.9239
vn -0.0000 0.2903 -0.9569
vn -0.0000 0.1951 -0.9808
vn -0.0000 0.0980 -0.9952
vt 0.500000 1.000000
vt 0.484375 0.000000
vt 0.500000 0.000000
vt 0.484375 1.000000
vt 0.468750 0.000000
vt 0.468750 1.000000
vt 0.453125 0.000000
vt 0.453125 1.000000
vt 0.437500 0.000000
vt 0.437500 1.000000
vt 0.421875 0.000000
vt 0.421875 1.000000
vt 0.406250 0.000000
vt 0.406250 1.000000
vt 0.390625 0.000000
vt 0.390625 1.000000
vt 0.375000 0.000000
vt 0.375000 1.000000
vt 0.359375 0.000000
vt 0.359375 1.000000
vt 0.343750 0.000000
vt 0.343750 1.000000
vt 0.328125 0.000000
vt 0.328125 1.000000
vt 0.312500 0.000000
vt 0.296875 1.000000
vt 0.296875 0.000000
vt 0.281250 0.000000
vt 0.281250 1.000000
vt 0.265625 0.000000
vt 0.265625 1.000000
vt 0.250000 0.000000
vt 0.250000 1.000000
vt 0.234375 0.000000
vt 0.234375 1.000000
vt 0.218750 0.000000
vt 0.218750 1.000000
vt 0.203125 0.000000
vt 0.203125 1.000000
vt 0.187500 0.000000
vt 0.187500 1.000000
vt 0.171875 0.000000
vt 0.171875 1.000000
vt 0.156250 0.000000
vt 0.156250 1.000000
vt 0.140625 0.000000
vt 0.140625 1.000000
vt 0.125000 0.000000
vt 0.125000 1.000000
vt 0.109375 0.000000
vt 0.109375 1.000000
vt 0.093750 0.000000
vt 0.093750 1.000000
vt 0.078125 0.000000
vt 0.078125 1.000000
vt 0.062500 0.000000
vt 0.062500 1.000000
vt 0.046875 0.000000
vt 0.046875 1.000000
vt 0.031250 0.000000
vt 0.031250 1.000000
vt 0.015625 0.000000
vt 0.015625 1.000000
vt 0.000000 0.000000
vt 0.312500 1.000000
vt 0.000000 1.000000
s 1
usemtl tunnel_baked_mat
f 4/1/2 5/2/3 3/3/2
f 6/4/3 7/5/4 5/2/3
f 8/6/4 9/7/5 7/5/4
f 10/8/5 11/9/6 9/7/5
f 12/10/6 13/11/7 11/9/6
f 14/12/7 15/13/8 13/11/7
f 16/14/8 17/15/9 15/13/8
f 18/16/9 19/17/10 17/15/9
f 20/18/10 21/19/11 19/17/10
f 22/20/11 23/21/12 21/19/11
f 24/22/12 25/23/13 23/21/12
f 26/24/13 27/25/14 25/23/13
f 27/25/14 30/26/15 29/27/15
f 30/26/15 31/28/16 29/27/15
f 32/29/16 33/30/17 31/28/16
f 34/31/17 35/32/18 33/30/17
f 36/33/18 37/34/19 35/32/18
f 38/35/19 39/36/20 37/34/19
f 40/37/20 41/38/21 39/36/20
f 42/39/21 43/40/22 41/38/21
f 44/41/22 45/42/23 43/40/22
f 46/43/23 47/44/24 45/42/23
f 48/45/24 49/46/25 47/44/24
f 50/47/25 51/48/26 49/46/25
f 52/49/26 53/50/27 51/48/26
f 54/51/27 55/52/28 53/50/27
f 56/53/28 57/54/29 55/52/28
f 58/55/29 59/56/30 57/54/29
f 60/57/30 61/58/31 59/56/30
f 62/59/31 63/60/32 61/58/31
f 64/61/32 65/62/33 63/60/32
f 66/63/33 1/64/1 65/62/33
f 4/1/2 6/4/3 5/2/3
f 6/4/3 8/6/4 7/5/4
f 8/6/4 10/8/5 9/7/5
f 10/8/5 12/10/6 11/9/6
f 12/10/6 14/12/7 13/11/7
f 14/12/7 16/14/8 15/13/8
f 16/14/8 18/16/9 17/15/9
f 18/16/9 20/18/10 19/17/10
f 20/18/10 22/20/11 21/19/11
f 22/20/11 24/22/12 23/21/12
f 24/22/12 26/24/13 25/23/13
f 26/24/13 28/65/14 27/25/14
f 27/25/14 28/65/14 30/26/15
f 30/26/15 32/29/16 31/28/16
f 32/29/16 34/31/17 33/30/17
f 34/31/17 36/33/18 35/32/18
f 36/33/18 38/35/19 37/34/19
f 38/35/19 40/37/20 39/36/20
f 40/37/20 42/39/21 41/38/21
f 42/39/21 44/41/22 43/40/22
f 44/41/22 46/43/23 45/42/23
f 46/43/23 48/45/24 47/44/24
f 48/45/24 50/47/25 49/46/25
f 50/47/25 52/49/26 51/48/26
f 52/49/26 54/51/27 53/50/27
f 54/51/27 56/53/28 55/52/28
f 56/53/28 58/55/29 57/54/29
f 58/55/29 60/57/30 59/56/30
f 60/57/30 62/59/31 61/58/31
f 62/59/31 64/61/32 63/60/32
f 64/61/32 66/63/33 65/62/33
f 66/63/33 2/66/1 1/64/1
