{
	"asset":{
		"generator":"Khronos glTF Blender I/O v5.1.19",
		"version":"2.0"
	},
	"scene":0,
	"scenes":[
		{
			"name":"Scene",
			"nodes":[
				0,
				1,
				2,
				3,
				4,
				5,
				6,
				7,
				8,
				9,
				10
			]
		}
	],
	"nodes":[
		{
			"mesh":0,
			"name":"Cylinder",
			"rotation":[
				0,
				0,
				-0.7071068286895752,
				0.7071068286895752
			]
		},
		{
			"mesh":1,
			"name":"crack_001"
		},
		{
			"mesh":2,
			"name":"crack_002"
		},
		{
			"mesh":3,
			"name":"crack_003"
		},
		{
			"mesh":4,
			"name":"crack_004"
		},
		{
			"mesh":5,
			"name":"crack_005"
		},
		{
			"mesh":6,
			"name":"crack_006"
		},
		{
			"mesh":7,
			"name":"crack_007"
		},
		{
			"mesh":8,
			"name":"crack_008"
		},
		{
			"mesh":9,
			"name":"crack_009"
		},
		{
			"mesh":10,
			"name":"crack_010"
		}
	],
	"materials":[
		{
			"alphaMode":"BLEND",
			"doubleSided":true,
			"name":"crack_001_mat",
			"pbrMetallicRoughness":{
				"baseColorTexture":{
					"index":0
				},
				"metallicFactor":0,
				"roughnessFactor":0.5
			}
		},
		{
			"alphaMode":"BLEND",
			"doubleSided":true,
			"name":"crack_002_mat",
			"pbrMetallicRoughness":{
				"baseColorTexture":{
					"index":1
				},
				"metallicFactor":0,
				"roughnessFactor":0.5
			}
		},
		{
			"alphaMode":"BLEND",
			"doubleSided":true,
			"name":"crack_003_mat",
			"pbrMetallicRoughness":{
				"baseColorTexture":{
					"index":2
				},
				"metallicFactor":0,
				"roughnessFactor":0.5
			}
		},
		{
			"alphaMode":"BLEND",
			"doubleSided":true,
			"name":"crack_004_mat",
			"pbrMetallicRoughness":{
				"baseColorTexture":{
					"index":3
				},
				"metallicFactor":0,
				"roughnessFactor":0.5
			}
		},
		{
			"alphaMode":"BLEND",
			"doubleSided":true,
			"name":"crack_005_mat",
			"pbrMetallicRoughness":{
				"baseColorTexture":{
					"index":4
				},
				"metallicFactor":0,
				"roughnessFactor":0.5
			}
		},
		{
			"alphaMode":"BLEND",
			"doubleSided":true,
			"name":"crack_006_mat",
			"pbrMetallicRoughness":{
				"baseColorTexture":{
					"index":5
				},
				"metallicFactor":0,
				"roughnessFactor":0.5
			}
		},
		{
			"alphaMode":"BLEND",
			"doubleSided":true,
			"name":"crack_007_mat",
			"pbrMetallicRoughness":{
				"baseColorTexture":{
					"index":6
				},
				"metallicFactor":0,
				"roughnessFactor":0.5
			}
		},
		{
			"alphaMode":"BLEND",
			"doubleSided":true,
			"name":"crack_008_mat",
			"pbrMetallicRoughness":{
				"baseColorTexture":{
					"index":7
				},
				"metallicFactor":0,
				"roughnessFactor":0.5
			}
		},
		{
			"alphaMode":"BLEND",
			"doubleSided":true,
			"name":"crack_009_mat",
			"pbrMetallicRoughness":{
				"baseColorTexture":{
					"index":8
				},
				"metallicFactor":0,
				"roughnessFactor":0.5
			}
		},
		{
			"alphaMode":"BLEND",
			"doubleSided":true,
			"name":"crack_010_mat",
			"pbrMetallicRoughness":{
				"baseColorTexture":{
					"index":9
				},
				"metallicFactor":0,
				"roughnessFactor":0.5
			}
		}
	],
	"meshes":[
		{
			"name":"Cylinder",
			"primitives":[
				{
					"attributes":{
						"POSITION":0,
						"NORMAL":1,
						"TEXCOORD_0":2
					},
					"indices":3
				}
			]
		},
		{
			"name":"crack_001_mesh.003",
			"primitives":[
				{
					"attributes":{
						"POSITION":4,
						"NORMAL":5,
						"TEXCOORD_0":6
					},
					"indices":7,
					"material":0
				}
			]
		},
		{
			"name":"crack_002_mesh.002",
			"primitives":[
				{
					"attributes":{
						"POSITION":8,
						"NORMAL":9,
						"TEXCOORD_0":10
					},
					"indices":11,
					"material":1
				}
			]
		},
		{
			"name":"crack_003_mesh.002",
			"primitives":[
				{
					"attributes":{
						"POSITION":12,
						"NORMAL":13,
						"TEXCOORD_0":14
					},
					"indices":15,
					"material":2
				}
			]
		},
		{
			"name":"crack_004_mesh.002",
			"primitives":[
				{
					"attributes":{
						"POSITION":16,
						"NORMAL":17,
						"TEXCOORD_0":18
					},
					"indices":19,
					"material":3
				}
			]
		},
		{
			"name":"crack_005_mesh.002",
			"primitives":[
				{
					"attributes":{
						"POSITION":20,
						"NORMAL":21,
						"TEXCOORD_0":22
					},
					"indices":23,
					"material":4
				}
			]
		},
		{
			"name":"crack_006_mesh.002",
			"primitives":[
				{
					"attributes":{
						"POSITION":24,
						"NORMAL":25,
						"TEXCOORD_0":26
					},
					"indices":11,
					"material":5
				}
			]
		},
		{
			"name":"crack_007_mesh.002",
			"primitives":[
				{
					"attributes":{
						"POSITION":27,
						"NORMAL":28,
						"TEXCOORD_0":29
					},
					"indices":30,
					"material":6
				}
			]
		},
		{
			"name":"crack_008_mesh.002",
			"primitives":[
				{
					"attributes":{
						"POSITION":31,
						"NORMAL":32,
						"TEXCOORD_0":33
					},
					"indices":19,
					"material":7
				}
			]
		},
		{
			"name":"crack_009_mesh.002",
			"primitives":[
				{
					"attributes":{
						"POSITION":34,
						"NORMAL":35,
						"TEXCOORD_0":36
					},
					"indices":7,
					"material":8
				}
			]
		},
		{
			"name":"crack_010_mesh.002",
			"primitives":[
				{
					"attributes":{
						"POSITION":37,
						"NORMAL":38,
						"TEXCOORD_0":39
					},
					"indices":40,
					"material":9
				}
			]
		}
	],
	"textures":[
		{
			"sampler":0,
			"source":0
		},
		{
			"sampler":0,
			"source":1
		},
		{
			"sampler":0,
			"source":2
		},
		{
			"sampler":0,
			"source":3
		},
		{
			"sampler":0,
			"source":4
		},
		{
			"sampler":0,
			"source":5
		},
		{
			"sampler":0,
			"source":6
		},
		{
			"sampler":0,
			"source":7
		},
		{
			"sampler":0,
			"source":8
		},
		{
			"sampler":0,
			"source":9
		}
	],
	"images":[
		{
			"mimeType":"image/png",
			"name":"crack_001",
			"uri":"crack_001.png"
		},
		{
			"mimeType":"image/png",
			"name":"crack_002",
			"uri":"crack_002.png"
		},
		{
			"mimeType":"image/png",
			"name":"crack_003",
			"uri":"crack_003.png"
		},
		{
			"mimeType":"image/png",
			"name":"crack_004",
			"uri":"crack_004.png"
		},
		{
			"mimeType":"image/png",
			"name":"crack_005",
			"uri":"crack_005.png"
		},
		{
			"mimeType":"image/png",
			"name":"crack_006",
			"uri":"crack_006.png"
		},
		{
			"mimeType":"image/png",
			"name":"crack_007",
			"uri":"crack_007.png"
		},
		{
			"mimeType":"image/png",
			"name":"crack_008",
			"uri":"crack_008.png"
		},
		{
			"mimeType":"image/png",
			"name":"crack_009",
			"uri":"crack_009.png"
		},
		{
			"mimeType":"image/png",
			"name":"crack_010",
			"uri":"crack_010.png"
		}
	],
	"accessors":[
		{
			"bufferView":0,
			"componentType":5126,
			"count":128,
			"max":[
				0,
				5,
				0.3499999940395355
			],
			"min":[
				-0.3499999940395355,
				-5,
				-0.3499999940395355
			],
			"type":"VEC3"
		},
		{
			"bufferView":1,
			"componentType":5126,
			"count":128,
			"type":"VEC3"
		},
		{
			"bufferView":2,
			"componentType":5126,
			"count":128,
			"type":"VEC2"
		},
		{
			"bufferView":3,
			"componentType":5123,
			"count":192,
			"type":"SCALAR"
		},
		{
			"bufferView":4,
			"componentType":5126,
			"count":288,
			"max":[
				-2.2829887866973877,
				0.2508043646812439,
				-0.2398044466972351
			],
			"min":[
				-2.5170111656188965,
				0.13956232368946075,
				-0.3176969587802887
			],
			"type":"VEC3"
		},
		{
			"bufferView":5,
			"componentType":5126,
			"count":288,
			"type":"VEC3"
		},
		{
			"bufferView":6,
			"componentType":5126,
			"count":288,
			"type":"VEC2"
		},
		{
			"bufferView":7,
			"componentType":5123,
			"count":432,
			"type":"SCALAR"
		},
		{
			"bufferView":8,
			"componentType":5126,
			"count":288,
			"max":[
				-1.6878782510757446,
				0.33329451084136963,
				-0.09655961394309998
			],
			"min":[
				-1.9121217727661133,
				0.2502703368663788,
				-0.24036172032356262
			],
			"type":"VEC3"
		},
		{
			"bufferView":9,
			"componentType":5126,
			"count":288,
			"type":"VEC3"
		},
		{
			"bufferView":10,
			"componentType":5126,
			"count":288,
			"type":"VEC2"
		},
		{
			"bufferView":11,
			"componentType":5123,
			"count":432,
			"type":"SCALAR"
		},
		{
			"bufferView":12,
			"componentType":5126,
			"count":288,
			"max":[
				-1.0590288639068604,
				0.3469994068145752,
				0.12364856153726578
			],
			"min":[
				-1.3409711122512817,
				0.324222207069397,
				-0.06546946614980698
			],
			"type":"VEC3"
		},
		{
			"bufferView":13,
			"componentType":5126,
			"count":288,
			"type":"VEC3"
		},
		{
			"bufferView":14,
			"componentType":5126,
			"count":288,
			"type":"VEC2"
		},
		{
			"bufferView":15,
			"componentType":5123,
			"count":432,
			"type":"SCALAR"
		},
		{
			"bufferView":16,
			"componentType":5126,
			"count":288,
			"max":[
				-0.5010037422180176,
				0.31343552470207214,
				0.24361087381839752
			],
			"min":[
				-0.6989963054656982,
				0.24710875749588013,
				0.14888644218444824
			],
			"type":"VEC3"
		},
		{
			"bufferView":17,
			"componentType":5126,
			"count":288,
			"type":"VEC3"
		},
		{
			"bufferView":18,
			"componentType":5126,
			"count":288,
			"type":"VEC2"
		},
		{
			"bufferView":19,
			"componentType":5123,
			"count":432,
			"type":"SCALAR"
		},
		{
			"bufferView":20,
			"componentType":5126,
			"count":288,
			"max":[
				0.13421288132667542,
				0.34699904918670654,
				0.0382598415017128
			],
			"min":[
				-0.13421288132667542,
				0.3109996020793915,
				-0.1539098620414734
			],
			"type":"VEC3"
		},
		{
			"bufferView":21,
			"componentType":5126,
			"count":288,
			"type":"VEC3"
		},
		{
			"bufferView":22,
			"componentType":5126,
			"count":288,
			"type":"VEC2"
		},
		{
			"bufferView":23,
			"componentType":5123,
			"count":432,
			"type":"SCALAR"
		},
		{
			"bufferView":24,
			"componentType":5126,
			"count":288,
			"max":[
				0.7160846590995789,
				0.29790204763412476,
				-0.17794205248355865
			],
			"min":[
				0.4839153587818146,
				0.17794205248355865,
				-0.29790204763412476
			],
			"type":"VEC3"
		},
		{
			"bufferView":25,
			"componentType":5126,
			"count":288,
			"type":"VEC3"
		},
		{
			"bufferView":26,
			"componentType":5126,
			"count":288,
			"type":"VEC2"
		},
		{
			"bufferView":27,
			"componentType":5126,
			"count":288,
			"max":[
				1.2321338653564453,
				0.3441743850708008,
				0.18737739324569702
			],
			"min":[
				0.9678661227226257,
				0.29205945134162903,
				0.044192783534526825
			],
			"type":"VEC3"
		},
		{
			"bufferView":28,
			"componentType":5126,
			"count":288,
			"type":"VEC3"
		},
		{
			"bufferView":29,
			"componentType":5126,
			"count":288,
			"type":"VEC2"
		},
		{
			"bufferView":30,
			"componentType":5123,
			"count":432,
			"type":"SCALAR"
		},
		{
			"bufferView":31,
			"componentType":5126,
			"count":288,
			"max":[
				1.6984288692474365,
				0.27029797434806824,
				0.3039766848087311
			],
			"min":[
				1.5015711784362793,
				0.16735343635082245,
				0.21759594976902008
			],
			"type":"VEC3"
		},
		{
			"bufferView":32,
			"componentType":5126,
			"count":288,
			"type":"VEC3"
		},
		{
			"bufferView":33,
			"componentType":5126,
			"count":288,
			"type":"VEC2"
		},
		{
			"bufferView":34,
			"componentType":5126,
			"count":288,
			"max":[
				2.223243236541748,
				0.3455493152141571,
				-0.03169665485620499
			],
			"min":[
				1.9767568111419678,
				0.28508034348487854,
				-0.19783376157283783
			],
			"type":"VEC3"
		},
		{
			"bufferView":35,
			"componentType":5126,
			"count":288,
			"type":"VEC3"
		},
		{
			"bufferView":36,
			"componentType":5126,
			"count":288,
			"type":"VEC2"
		},
		{
			"bufferView":37,
			"componentType":5126,
			"count":288,
			"max":[
				2.7247023582458496,
				0.3469977378845215,
				0.15113422274589539
			],
			"min":[
				2.475297689437866,
				0.3123578727245331,
				-0.03518703579902649
			],
			"type":"VEC3"
		},
		{
			"bufferView":38,
			"componentType":5126,
			"count":288,
			"type":"VEC3"
		},
		{
			"bufferView":39,
			"componentType":5126,
			"count":288,
			"type":"VEC2"
		},
		{
			"bufferView":40,
			"componentType":5123,
			"count":432,
			"type":"SCALAR"
		}
	],
	"bufferViews":[
		{
			"buffer":0,
			"byteLength":1536,
			"byteOffset":0,
			"target":34962
		},
		{
			"buffer":0,
			"byteLength":1536,
			"byteOffset":1536,
			"target":34962
		},
		{
			"buffer":0,
			"byteLength":1024,
			"byteOffset":3072,
			"target":34962
		},
		{
			"buffer":0,
			"byteLength":384,
			"byteOffset":4096,
			"target":34963
		},
		{
			"buffer":0,
			"byteLength":3456,
			"byteOffset":4480,
			"target":34962
		},
		{
			"buffer":0,
			"byteLength":3456,
			"byteOffset":7936,
			"target":34962
		},
		{
			"buffer":0,
			"byteLength":2304,
			"byteOffset":11392,
			"target":34962
		},
		{
			"buffer":0,
			"byteLength":864,
			"byteOffset":13696,
			"target":34963
		},
		{
			"buffer":0,
			"byteLength":3456,
			"byteOffset":14560,
			"target":34962
		},
		{
			"buffer":0,
			"byteLength":3456,
			"byteOffset":18016,
			"target":34962
		},
		{
			"buffer":0,
			"byteLength":2304,
			"byteOffset":21472,
			"target":34962
		},
		{
			"buffer":0,
			"byteLength":864,
			"byteOffset":23776,
			"target":34963
		},
		{
			"buffer":0,
			"byteLength":3456,
			"byteOffset":24640,
			"target":34962
		},
		{
			"buffer":0,
			"byteLength":3456,
			"byteOffset":28096,
			"target":34962
		},
		{
			"buffer":0,
			"byteLength":2304,
			"byteOffset":31552,
			"target":34962
		},
		{
			"buffer":0,
			"byteLength":864,
			"byteOffset":33856,
			"target":34963
		},
		{
			"buffer":0,
			"byteLength":3456,
			"byteOffset":34720,
			"target":34962
		},
		{
			"buffer":0,
			"byteLength":3456,
			"byteOffset":38176,
			"target":34962
		},
		{
			"buffer":0,
			"byteLength":2304,
			"byteOffset":41632,
			"target":34962
		},
		{
			"buffer":0,
			"byteLength":864,
			"byteOffset":43936,
			"target":34963
		},
		{
			"buffer":0,
			"byteLength":3456,
			"byteOffset":44800,
			"target":34962
		},
		{
			"buffer":0,
			"byteLength":3456,
			"byteOffset":48256,
			"target":34962
		},
		{
			"buffer":0,
			"byteLength":2304,
			"byteOffset":51712,
			"target":34962
		},
		{
			"buffer":0,
			"byteLength":864,
			"byteOffset":54016,
			"target":34963
		},
		{
			"buffer":0,
			"byteLength":3456,
			"byteOffset":54880,
			"target":34962
		},
		{
			"buffer":0,
			"byteLength":3456,
			"byteOffset":58336,
			"target":34962
		},
		{
			"buffer":0,
			"byteLength":2304,
			"byteOffset":61792,
			"target":34962
		},
		{
			"buffer":0,
			"byteLength":3456,
			"byteOffset":64096,
			"target":34962
		},
		{
			"buffer":0,
			"byteLength":3456,
			"byteOffset":67552,
			"target":34962
		},
		{
			"buffer":0,
			"byteLength":2304,
			"byteOffset":71008,
			"target":34962
		},
		{
			"buffer":0,
			"byteLength":864,
			"byteOffset":73312,
			"target":34963
		},
		{
			"buffer":0,
			"byteLength":3456,
			"byteOffset":74176,
			"target":34962
		},
		{
			"buffer":0,
			"byteLength":3456,
			"byteOffset":77632,
			"target":34962
		},
		{
			"buffer":0,
			"byteLength":2304,
			"byteOffset":81088,
			"target":34962
		},
		{
			"buffer":0,
			"byteLength":3456,
			"byteOffset":83392,
			"target":34962
		},
		{
			"buffer":0,
			"byteLength":3456,
			"byteOffset":86848,
			"target":34962
		},
		{
			"buffer":0,
			"byteLength":2304,
			"byteOffset":90304,
			"target":34962
		},
		{
			"buffer":0,
			"byteLength":3456,
			"byteOffset":92608,
			"target":34962
		},
		{
			"buffer":0,
			"byteLength":3456,
			"byteOffset":96064,
			"target":34962
		},
		{
			"buffer":0,
			"byteLength":2304,
			"byteOffset":99520,
			"target":34962
		},
		{
			"buffer":0,
			"byteLength":864,
			"byteOffset":101824,
			"target":34963
		}
	],
	"samplers":[
		{
			"magFilter":9729,
			"minFilter":9987
		}
	],
	"buffers":[
		{
			"byteLength":102688,
			"uri":"tunnel.bin"
		}
	]
}
